<?xml version="1.0" encoding="utf-8"?>
<!-- Generator: Adobe Illustrator 16.0.0, SVG Export Plug-In . SVG Version: 6.00 Build 0)  -->
<!DOCTYPE svg PUBLIC "-//W3C//DTD SVG 1.1//EN" "http://www.w3.org/Graphics/SVG/1.1/DTD/svg11.dtd">
<svg version="1.1" id="Calque_1" xmlns="http://www.w3.org/2000/svg" xmlns:xlink="http://www.w3.org/1999/xlink" x="0px" y="0px"
	 width="960px" height="368.387px" viewBox="0 0 960 368.387" enable-background="new 0 0 960 368.387" xml:space="preserve">
<g>
	<g>
		<path fill="#FFFFFF" d="M106.703,9.69c0,0.096-7.436,16.034-22.308,47.813c-0.741,1.671-9.382,20.258-25.914,55.766
			c-17.088,36.689-26.508,56.851-28.261,60.472c-2.039,4.706-3.792,8.439-5.267,11.181c-5.544-9.119-9.104-15.149-10.671-18.092
			c-8.039-15.987-12.054-32.616-12.054-49.882v-1.027c0-19.327,4.896-37.62,14.687-54.885c2.309-4.116,5.498-8.729,9.56-13.83
			c3.05-3.826,6.694-7.699,10.949-11.625c10.532-9.216,21.845-15.891,33.944-20.007c3.513-1.27,8.131-2.452,13.86-3.533
			C88.086,11.354,95.245,10.57,106.703,9.69z M17.333,116.218v0.286c0,11.775,2.17,23.35,6.509,34.724
			c0.556-0.977,10.162-21.478,28.825-61.499C69.478,53.533,78.805,33.477,80.65,29.55v-0.146c-3.228,0.884-6.417,1.965-9.559,3.235
			C51.972,40.978,37.378,54.811,27.31,74.131C20.661,87.57,17.333,101.597,17.333,116.218z M127.351,13.659
			c9.606,3.143,17.227,6.475,22.864,10.007c3.413,1.865,7.15,4.413,11.22,7.652c2.772,1.965,6.1,4.949,9.977,8.972
			c4.896,5.201,8.077,8.926,9.559,11.181c3.784,5.397,6.556,9.86,8.309,13.393c2.409,4.413,4.671,9.764,6.795,16.038
			c3.884,11.575,5.822,23.149,5.822,34.72v1.324c0,17.856-4.347,35.018-13.026,51.5c-2.309,4.413-5.452,9.27-9.42,14.563
			c-4.718,6.089-9.66,11.328-14.826,15.748c-3.884,3.236-7.305,5.788-10.254,7.648c-16.447,10.498-33.674,15.745-51.688,15.745
			h-1.382c-16.81,0-33.026-4.56-48.631-13.687c-2.772-1.761-6.749-4.51-11.922-8.235v-0.146
			c2.958-6.379,13.258-28.598,30.902-66.654c20.509-44.041,30.81-66.213,30.902-66.502c1.382-2.846,9.42-20.162,24.107-51.944
			C127.027,14.103,127.258,13.659,127.351,13.659z M134.973,33.526c-15.521,33.35-27.991,60.175-37.412,80.479
			c-21.343,46.001-32.755,70.576-34.23,73.718l-3.182,6.765c2.124,1.278,4.98,2.799,8.587,4.56
			c10.903,4.706,21.659,7.065,32.284,7.065h2.216c11.915,0,23.93-3.039,36.029-9.123c4.34-2.255,9.003-5.297,13.992-9.127
			c2.494-2.055,5.127-4.506,7.899-7.355c3.606-3.826,6.146-6.768,7.622-8.821c3.505-5.004,6.046-9.127,7.621-12.366
			c6.926-13.436,10.394-27.709,10.394-42.817v-0.437c0-18.736-5.32-36.148-15.938-52.237c-1.853-2.837-4.571-6.274-8.177-10.297
			c-3.969-4.212-7.204-7.212-9.698-8.973c-4.618-3.629-9.004-6.524-13.158-8.683C137.505,34.7,135.891,33.917,134.973,33.526z"/>
		<path fill="#FFFFFF" d="M214.915,9.833h165.722c0.093,0,0.131,0.05,0.131,0.147v127.716c0,15.795-4.108,30.752-12.324,44.878
			c-1.854,3.035-4.347,6.525-7.482,10.444c-3.235,3.826-5.822,6.574-7.76,8.238c-4.162,3.733-7.667,6.525-10.532,8.39
			c-13.212,8.336-27.018,12.506-41.435,12.506h-0.965c-16.81,0-32.608-5.101-47.388-15.301c-3.05-2.158-6.648-5.247-10.802-9.273
			c-4.162-4.316-6.841-7.355-8.039-9.123c-2.494-3.332-4.671-6.518-6.517-9.563c-8.494-15.003-12.749-30.752-12.749-47.226V9.979
			C214.775,9.883,214.822,9.833,214.915,9.833z M229.879,25.871v105.053c0,18.049,5.59,34.289,16.764,48.708
			c3.42,4.019,6.378,7.107,8.872,9.266c3.884,3.336,7.899,6.182,12.053,8.532c10.618,5.792,21.66,8.684,33.118,8.684
			c13.575,0,26.23-4.316,37.96-12.949c2.224-1.664,4.996-4.212,8.316-7.652c3.42-3.826,5.683-6.718,6.787-8.683
			c7.945-11.965,11.922-25.204,11.922-39.725V25.871H229.879z M297.776,105.62c3.505,0,6.324,1.718,8.455,5.15
			c0.919,1.668,1.382,3.436,1.382,5.297c0,3.336-1.382,6.127-4.154,8.382c-1.668,1.278-3.56,1.915-5.683,1.915
			c-3.514,0-6.332-1.714-8.456-5.15c-0.919-1.664-1.382-3.432-1.382-5.293c0-3.332,1.382-6.135,4.154-8.39
			C293.761,106.261,295.652,105.62,297.776,105.62z"/>
		<path fill="#FFFFFF" d="M415.276,9.979h59.989c0.093,0,0.146,0.05,0.146,0.146v15.745c0,0.104-0.054,0.146-0.146,0.146h-22.447
			v80.487h22.447c0.093,0,0.146,0.046,0.146,0.146v15.891h-0.146h-22.447v83.572h22.447c0.093,0,0.146,0.05,0.146,0.146v15.744
			c0,0.097-0.054,0.147-0.146,0.147h-59.989c-0.101,0-0.139-0.051-0.139-0.147V206.26c0-0.097,0.039-0.146,0.139-0.146h22.446
			v-83.572h-22.446h-0.139V106.65c0-0.1,0.039-0.146,0.139-0.146h22.446V26.017h-22.446c-0.101,0-0.139-0.042-0.139-0.146V10.126
			C415.137,10.03,415.176,9.979,415.276,9.979z"/>
		<path fill="#FFFFFF" d="M540.668,201.994c3.05,0,5.591,1.374,7.621,4.119c1.197,1.765,1.8,3.68,1.8,5.733v0.15
			c0,3.729-1.614,6.621-4.85,8.683c-1.39,0.881-2.818,1.324-4.293,1.324h-0.557c-3.228,0-5.906-1.671-8.038-5.003
			c-0.733-1.664-1.104-3.336-1.104-5.004v-0.15c0-3.429,1.528-6.274,4.57-8.528C537.395,202.43,539,201.994,540.668,201.994z"/>
		<path fill="#FFFFFF" d="M695.657,168.223c0.216,15.1-3.475,28.003-11.073,38.717c-4.996,7.258-12.038,12.386-21.157,15.386
			c-4.888,1.609-10.579,2.42-17.088,2.42c-12.054,0-22.03-3.173-29.952-9.505c-6.617-5.189-11.853-12.243-15.706-21.177
			c-3.853-8.93-6.107-19.153-6.757-30.678l29.297-2.247c1.305,12.629,4.455,21.774,9.443,27.446
			c3.683,4.289,7.922,6.313,12.694,6.081c6.726-0.225,12.1-3.745,16.115-10.552c2.062-3.34,3.096-8.127,3.096-14.354
			c0-8.996-3.853-17.934-11.56-26.817c-6.084-6.107-15.195-15.281-27.35-27.504c-10.2-10.494-17.412-19.891-21.644-28.196
			c-4.563-9.347-6.834-19.493-6.834-30.45c0-19.721,6.239-34.655,18.718-44.801c7.698-6.115,17.25-9.173,28.646-9.173
			c10.957,0,20.34,2.595,28.161,7.78c6.069,4.035,10.98,9.679,14.726,16.938s5.992,15.613,6.756,25.061l-29.465,5.706
			c-0.865-8.872-3.251-15.791-7.158-20.74c-2.818-3.571-6.896-5.359-12.208-5.359c-5.645,0-9.931,2.652-12.856,7.954
			c-2.387,4.258-3.583,9.563-3.583,15.895c0,9.911,4.015,19.995,12.046,30.246c3.034,3.918,7.598,8.532,13.675,13.83
			c7.158,6.339,11.876,10.779,14.161,13.308c7.591,8.069,13.451,16.019,17.575,23.856c1.953,3.688,3.521,7.085,4.718,10.192
			C694.02,155.204,695.541,162.123,695.657,168.223z"/>
		<path fill="#FFFFFF" d="M751.963,153.451v68.7H721.2V5.412h30.763v77.255l37.605-77.255h32.793l-42.113,88.401l49.38,128.338
			h-36.161l-32.299-87.996L751.963,153.451z"/>
		<path fill="#FFFFFF" d="M885.27,222.151h-30.771V5.586h30.771V222.151z"/>
	</g>
	<g>
		<path fill="#FFFFFF" d="M620.95,290.441c0.062,4.185-0.966,7.764-3.073,10.737c-1.383,2.011-3.336,3.436-5.868,4.266
			c-1.352,0.448-2.935,0.672-4.741,0.672c-3.344,0-6.108-0.876-8.309-2.637c-1.83-1.44-3.282-3.394-4.355-5.872
			c-1.065-2.479-1.69-5.313-1.868-8.51l8.123-0.625c0.355,3.501,1.235,6.038,2.617,7.613c1.02,1.189,2.201,1.753,3.521,1.691
			c1.868-0.066,3.358-1.043,4.471-2.931c0.571-0.927,0.857-2.255,0.857-3.984c0-2.49-1.065-4.969-3.205-7.437
			c-1.683-1.694-4.216-4.239-7.59-7.633c-2.826-2.907-4.826-5.513-6-7.821c-1.267-2.587-1.899-5.409-1.899-8.448
			c0-5.471,1.737-9.613,5.196-12.428c2.132-1.694,4.788-2.54,7.946-2.54c3.034,0,5.645,0.718,7.807,2.158
			c1.69,1.115,3.058,2.683,4.084,4.694c1.043,2.016,1.668,4.336,1.877,6.953l-8.17,1.583c-0.239-2.459-0.903-4.382-1.992-5.756
			c-0.779-0.988-1.907-1.482-3.382-1.482c-1.567,0-2.757,0.737-3.567,2.2c-0.656,1.189-0.996,2.66-0.996,4.413
			c0,2.749,1.111,5.552,3.344,8.397c0.842,1.085,2.107,2.362,3.799,3.833c1.984,1.753,3.289,2.985,3.923,3.688
			c2.107,2.239,3.729,4.444,4.88,6.621c0.54,1.023,0.973,1.966,1.305,2.826C620.502,286.831,620.919,288.742,620.95,290.441z"/>
		<path fill="#FFFFFF" d="M643.181,291.588l-2.062,13.811h-8.896l9.621-60.078h11.737l9.482,60.078h-8.973l-1.992-13.811H643.181z
			 M647.667,259.084l-3.158,23.682h6.316L647.667,259.084z"/>
		<path fill="#FFFFFF" d="M685.133,305.398H676.6v-60.125h12.247l7.953,43.188l7.637-43.188h11.768v60.125h-8.54V267.62
			l-7.405,37.778h-6.856l-8.27-37.682V305.398z"/>
		<path fill="#FFFFFF" d="M754.109,245.32c4.757,0,8.247,1.394,10.479,4.173c1.954,2.429,2.935,5.818,2.935,10.162v8.729
			c0,4.25-1.521,7.849-4.563,10.791l6.324,26.223h-9.235l-5.166-22.633c-0.247,0-0.502,0-0.772,0h-4.918v22.633h-8.54V245.32
			H754.109z M759.206,259.802c0-3.486-1.621-5.228-4.872-5.228h-5.143v19.23h5.143c1.359,0,2.502-0.513,3.459-1.536
			c0.95-1.027,1.413-2.255,1.413-3.691V259.802z"/>
		<path fill="#FFFFFF" d="M782.958,305.398v-60.125h24.292v9.107h-15.768v16.397h11.521v9.115h-11.521v16.396h15.768v9.108H782.958z
			"/>
		<path fill="#FFFFFF" d="M833.018,306.162c-3.769,0-6.965-1.405-9.598-4.22c-2.634-2.807-3.946-6.185-3.946-10.115v-32.798
			c0-3.992,1.32-7.386,3.969-10.185c2.649-2.795,5.846-4.192,9.575-4.192c3.761,0,6.957,1.405,9.567,4.22
			c2.625,2.811,3.93,6.196,3.93,10.157v6.861h-8.849v-7.046c0-1.437-0.479-2.672-1.444-3.691c-0.965-1.023-2.123-1.536-3.475-1.536
			c-1.358,0-2.509,0.513-3.459,1.536c-0.942,1.02-1.413,2.255-1.413,3.691v32.886c0,1.44,0.471,2.664,1.413,3.668
			c0.95,1.008,2.101,1.514,3.459,1.514c1.352,0,2.51-0.506,3.475-1.506c0.966-1.004,1.444-2.224,1.444-3.656v-11.811h-4.741v-9.111
			h13.59v20.999c0,3.996-1.32,7.386-3.977,10.166C839.897,304.776,836.724,306.162,833.018,306.162z"/>
	</g>
	<g>
		<path fill="#FFFFFF" d="M885.463,245.343v60.125h-24.292v-9.104h15.752v-16.401h-11.505v-9.111h11.505v-16.4h-15.752v-9.108
			H885.463z"/>
	</g>
	<path fill="#FFFFFF" d="M796.209,337.057l111.701,0.938c3.305-0.205,6.528-0.514,9.637-0.923
		c7.675-1.451,13.277-2.595,16.802-3.429c6.85-1.872,11.814-4.671,14.926-8.404l2.494-2.8c1.444-1.447,2.903-2.069,4.355-1.864
		c1.864,0.413,2.795,1.965,2.803,4.668c-0.208,2.273-1.042,4.146-2.49,5.602c-2.494,3.108-5.71,5.695-9.645,7.775
		c-1.868,0.826-5.188,2.073-9.965,3.733c-5.181,1.444-11.3,2.591-18.347,3.421c-7.679,0.826-17.436,1.243-29.249,1.243
		c-13.69-0.208-25.521-0.941-35.474-2.188l-13.683-1.247l-2.486-0.626l1.868-0.617c-0.204,0-0.416-0.004-0.633,0l-49.773,0.309
		l-0.316,0.313h-1.244l0.316-0.316l-240.189,0.919c-18.879-0.004-28.318-1.456-28.318-4.363c0.004-3.104,9.439-4.663,28.318-4.659
		l178.896,1.88"/>
	<path fill="#FFFFFF" d="M601.438,360.982c0.008-2.274,6.022-3.425,18.045-3.421c167.178,0.012,253.456,1.166,258.869,3.44
		c-5.822,2.277-92.097,3.413-258.869,3.405C607.456,364.403,601.445,363.261,601.438,360.982z"/>
</g>
</svg>
